<?xml version="1.0" encoding="UTF-8"?>
<svg width="173px" height="209px" viewBox="0 0 173 209" version="1.1" xmlns="http://www.w3.org/2000/svg" xmlns:xlink="http://www.w3.org/1999/xlink">
    <!-- Generator: Sketch 57.1 (83088) - https://sketch.com -->
    <title>tree-outline</title>
    <desc>Created with Sketch.</desc>
    <defs>
        <path d="M94.0087109,2.70161975 L136.315498,37.2150515 C141.450852,41.404419 142.217725,48.9635989 138.028358,54.0989525 C135.749397,56.892517 132.335205,58.5134318 128.729978,58.5134318 L124.357,58.513 L153.368582,82.2214942 C158.500378,86.4152195 159.260834,93.9750477 155.067109,99.1068431 C152.788035,101.895709 149.37683,103.513432 145.775171,103.513432 L137.677,103.513 L168.452252,128.731691 C173.578416,132.932297 174.328728,140.493139 170.128122,145.619303 C167.848882,148.400748 164.442402,150.013432 160.84638,150.013432 L106.423,150.013 L106.42319,196.69525 C106.42319,203.322667 101.050607,208.69525 94.4231902,208.69525 L78.4231902,208.69525 C71.7957732,208.69525 66.4231902,203.322667 66.4231902,196.69525 L66.423,150.013 L12,150.013432 C5.372583,150.013432 -7.10542736e-14,144.640849 -7.10542736e-14,138.013432 C-7.10542736e-14,134.417411 1.61268377,131.01093 4.39412867,128.731691 L35.169,103.513 L27.0712093,103.513432 C20.4437923,103.513432 15.0712093,98.1408488 15.0712093,91.5134318 C15.0712093,87.9117723 16.6889317,84.5005677 19.477798,82.2214942 L48.488,58.513 L44.1164028,58.5134318 C37.4889858,58.5134318 32.1164028,53.1408488 32.1164028,46.5134318 C32.1164028,42.9082045 33.7373175,39.4940121 36.5308821,37.2150515 L78.8376694,2.70161975 C83.25322,-0.900539917 89.5931603,-0.900539917 94.0087109,2.70161975 Z" id="path-1"></path>
        <mask id="mask-2" maskContentUnits="userSpaceOnUse" maskUnits="objectBoundingBox" x="0" y="0" width="172.846736" height="208.69525" fill="white">
            <use xlink:href="#path-1"></use>
        </mask>
    </defs>
    <g id="tree-outline" stroke="none" stroke-width="1" fill="none" fill-rule="evenodd" stroke-dasharray="8,8" stroke-linecap="square">
        <use id="Combined-Shape-Copy" stroke="#212121" mask="url(#mask-2)" stroke-width="2" xlink:href="#path-1"></use>
    </g>
</svg>