<?xml version="1.0" encoding="UTF-8"?>
<svg width="294px" height="170px" viewBox="0 0 294 170" version="1.1" xmlns="http://www.w3.org/2000/svg" xmlns:xlink="http://www.w3.org/1999/xlink">
    <!-- Generator: Sketch 57.1 (83088) - https://sketch.com -->
    <title>car icon copy</title>
    <desc>Created with Sketch.</desc>
    <defs>
        <path d="M113.047774,145.999499 C113.527304,143.826513 113.778697,141.580177 113.778697,139.281302 C113.778697,120.235904 96.5241505,104.796558 75.2395884,104.796558 C53.9550263,104.796558 36.7004795,120.235904 36.7004795,139.281302 C36.7004795,141.580177 36.9518731,143.826513 37.4314031,145.999499 L21,145.999109 C9.40202025,145.999109 -3.076428e-13,136.597089 -3.0908609e-13,124.999109 C-3.0908609e-13,124.887637 0.00088757277,124.776167 0.00266263391,124.664709 L0.501398788,93.3485512 C0.644043802,84.3916984 6.45267482,76.5114165 14.966225,73.7248375 C19.2191832,72.3327973 24.3544212,71.1541914 30.371939,70.1890199 C33.4142708,69.7010493 53.3923861,65.2918161 56.7494303,50.0461365 C60.1064745,34.8004568 69.0191515,23.1128251 77.2991831,17.1683768 C82.0048593,13.7900505 94.1726933,4.64150561 112.221198,2.4093993 C129.900807,0.22291538 131.544722,0.019608017 144.084583,0.000703746194 L147.964,1.42108547e-14 L149.87354,0.000747732146 C162.387001,0.0199222027 164.041986,0.224598527 181.707985,2.4093993 C199.75649,4.64150561 211.924324,13.7900505 216.63,17.1683768 C224.910032,23.1128251 233.822709,34.8004568 237.179753,50.0461365 C240.536797,65.2918161 260.514912,69.7010493 263.557244,70.1890199 C269.574762,71.1541914 274.71,72.3327973 278.962958,73.7248375 C287.476508,76.5114165 293.285139,84.3916984 293.427784,93.3485512 L293.427784,93.3485512 L293.92652,124.664709 C293.928296,124.776167 293.929183,124.887637 293.929183,124.999109 C293.929183,136.597089 284.527163,145.999109 272.929183,145.999109 L272.929183,145.999109 L256.49778,145.999499 C256.97731,143.826513 257.228704,141.580177 257.228704,139.281302 C257.228704,120.235904 239.974157,104.796558 218.689595,104.796558 C197.405033,104.796558 180.150486,120.235904 180.150486,139.281302 C180.150486,141.580177 180.401879,143.826513 180.881409,145.999499 L180.881409,145.999499 L145.964983,145.999 L113.047774,145.999499 Z M86.7319015,24.4742885 C75.2006094,34.178995 70.3196839,47.2189012 72.0891251,63.5940073 L140.806124,63.5940073 L140.806124,10.7974464 L135.55648,10.7974464 C114.538053,10.2106347 98.2631936,14.7695821 86.7319015,24.4742885 Z M207.197282,24.4742885 C195.665989,14.7695821 179.39113,10.2106347 158.372703,10.7974464 L158.372703,10.7974464 L153.123059,10.7974464 L153.123059,63.5940073 L221.840058,63.5940073 C223.609499,47.2189012 218.728574,34.178995 207.197282,24.4742885 Z" id="path-1"></path>
        <mask id="mask-2" maskContentUnits="userSpaceOnUse" maskUnits="objectBoundingBox" x="0" y="0" width="293.929183" height="145.999499" fill="white">
            <use xlink:href="#path-1"></use>
        </mask>
        <path d="M74.4645915,109 C91.3092764,109 104.964592,122.655315 104.964592,139.5 C104.964592,156.344685 91.3092764,170 74.4645915,170 C57.6199067,170 43.9645915,156.344685 43.9645915,139.5 C43.9645915,122.655315 57.6199067,109 74.4645915,109 Z M74.4645915,122 C64.7996084,122 56.9645915,129.835017 56.9645915,139.5 C56.9645915,149.164983 64.7996084,157 74.4645915,157 C84.1295747,157 91.9645915,149.164983 91.9645915,139.5 C91.9645915,129.835017 84.1295747,122 74.4645915,122 Z" id="path-3"></path>
        <mask id="mask-4" maskContentUnits="userSpaceOnUse" maskUnits="objectBoundingBox" x="0" y="0" width="61" height="61" fill="white">
            <use xlink:href="#path-3"></use>
        </mask>
        <path d="M219.464592,109 C236.309276,109 249.964592,122.655315 249.964592,139.5 C249.964592,156.344685 236.309276,170 219.464592,170 C202.619907,170 188.964592,156.344685 188.964592,139.5 C188.964592,122.655315 202.619907,109 219.464592,109 Z M219.464592,122 C209.799608,122 201.964592,129.835017 201.964592,139.5 C201.964592,149.164983 209.799608,157 219.464592,157 C229.129575,157 236.964592,149.164983 236.964592,139.5 C236.964592,129.835017 229.129575,122 219.464592,122 Z" id="path-5"></path>
        <mask id="mask-6" maskContentUnits="userSpaceOnUse" maskUnits="objectBoundingBox" x="0" y="0" width="61" height="61" fill="white">
            <use xlink:href="#path-5"></use>
        </mask>
    </defs>
    <g id="Symbols" stroke="none" stroke-width="1" fill="none" fill-rule="evenodd" stroke-dasharray="8,8" stroke-linecap="square">
        <g id="car-outline" stroke="#000000" stroke-width="2">
            <g id="car-icon-copy">
                <use id="Combined-Shape" mask="url(#mask-2)" xlink:href="#path-1"></use>
                <use id="Combined-Shape" mask="url(#mask-4)" xlink:href="#path-3"></use>
                <use id="Combined-Shape" mask="url(#mask-6)" stroke-linejoin="bevel" transform="translate(219.464592, 139.500000) scale(-1, 1) translate(-219.464592, -139.500000) " xlink:href="#path-5"></use>
            </g>
        </g>
    </g>
</svg>